<svg xmlns="http://www.w3.org/2000/svg" xmlns:xlink="http://www.w3.org/1999/xlink">

    <symbol id="icon-menu" viewBox="0 0 40 40">
    <title>Menu</title>
        <defs>
            <clipPath>
            <rect width="40" height="40" transform="translate(320 39)"/>
            </clipPath>
        </defs>
        <g transform="translate(-320 -39)" clip-path="url(#clip-path)">
            <g transform="translate(320 39)">
            <g>
                <rect width="39.021" height="6.131" transform="translate(0.489)"/>
                <rect width="38.976" height="6.132" transform="translate(0.512 11.095)"/>
                <rect width="39.021" height="6.132" transform="translate(0.489 22.773)"/>
                <rect width="38.976" height="6.131" transform="translate(0.512 33.869)"/>
            </g>
            </g>
        </g>
    </symbol>

    <symbol id="icon-facebook" viewBox="0 0 50 50">
    <title>Facebook</title>
        <defs>
            <clipPath>
            <rect width="50" height="50" transform="translate(140 67)"/>
            </clipPath>
        </defs>
        <g transform="translate(-140 -67)" clip-path="url(#clip-path)">
            <path d="M0,0V50H26.628V30.686H20.119V22.8h6.509V16.18a8.72,8.72,0,0,1,8.72-8.72h6.805v7.09H37.283a2.771,2.771,0,0,0-2.771,2.771V22.8H42.03l-1.039,7.884H34.513V50H50V0Z" transform="translate(140 67)"/>
        </g>
    </symbol>

    <symbol id="icon-instagram" viewBox="0 0 50 50">
    <title>Instagram</title>
        <defs>
            <clipPath>
            <rect width="50" height="50" transform="translate(210 67)"/>
            </clipPath>
        </defs>
        <g transform="translate(-210 -67)" clip-path="url(#clip-path)">
            <path d="M25,20.028A4.972,4.972,0,1,0,29.972,25,4.978,4.978,0,0,0,25,20.028Zm0,0A4.972,4.972,0,1,0,29.972,25,4.978,4.978,0,0,0,25,20.028Zm8.283-8.107H16.717a4.8,4.8,0,0,0-4.8,4.8V33.283a4.8,4.8,0,0,0,4.8,4.8H33.283a4.8,4.8,0,0,0,4.8-4.8V16.717A4.8,4.8,0,0,0,33.283,11.922ZM25,33.611A8.611,8.611,0,1,1,33.611,25,8.621,8.621,0,0,1,25,33.611ZM33.887,18.17a2.037,2.037,0,1,1,2.037-2.037A2.04,2.04,0,0,1,33.887,18.17ZM25,20.028A4.972,4.972,0,1,0,29.972,25,4.978,4.978,0,0,0,25,20.028Zm8.283-8.107H16.717a4.8,4.8,0,0,0-4.8,4.8V33.283a4.8,4.8,0,0,0,4.8,4.8H33.283a4.8,4.8,0,0,0,4.8-4.8V16.717A4.8,4.8,0,0,0,33.283,11.922ZM25,33.611A8.611,8.611,0,1,1,33.611,25,8.621,8.621,0,0,1,25,33.611ZM33.887,18.17a2.037,2.037,0,1,1,2.037-2.037A2.04,2.04,0,0,1,33.887,18.17ZM25,20.028A4.972,4.972,0,1,0,29.972,25,4.978,4.978,0,0,0,25,20.028ZM0,0V50H50V0ZM41.717,33.283a8.443,8.443,0,0,1-8.434,8.434H16.717a8.443,8.443,0,0,1-8.434-8.434V16.717a8.443,8.443,0,0,1,8.434-8.434H33.283a8.443,8.443,0,0,1,8.434,8.434V33.283ZM33.283,11.922H16.717a4.8,4.8,0,0,0-4.8,4.8V33.283a4.8,4.8,0,0,0,4.8,4.8H33.283a4.8,4.8,0,0,0,4.8-4.8V16.717A4.8,4.8,0,0,0,33.283,11.922ZM25,33.611A8.611,8.611,0,1,1,33.611,25,8.621,8.621,0,0,1,25,33.611ZM33.887,18.17a2.037,2.037,0,1,1,2.037-2.037A2.04,2.04,0,0,1,33.887,18.17ZM25,20.028A4.972,4.972,0,1,0,29.972,25,4.978,4.978,0,0,0,25,20.028Zm0,0A4.972,4.972,0,1,0,29.972,25,4.978,4.978,0,0,0,25,20.028Zm0,0A4.972,4.972,0,1,0,29.972,25,4.978,4.978,0,0,0,25,20.028Zm8.283-8.107H16.717a4.8,4.8,0,0,0-4.8,4.8V33.283a4.8,4.8,0,0,0,4.8,4.8H33.283a4.8,4.8,0,0,0,4.8-4.8V16.717A4.8,4.8,0,0,0,33.283,11.922ZM25,33.611A8.611,8.611,0,1,1,33.611,25,8.621,8.621,0,0,1,25,33.611ZM33.887,18.17a2.037,2.037,0,1,1,2.037-2.037A2.04,2.04,0,0,1,33.887,18.17ZM25,20.028A4.972,4.972,0,1,0,29.972,25,4.978,4.978,0,0,0,25,20.028Zm0,0A4.972,4.972,0,1,0,29.972,25,4.978,4.978,0,0,0,25,20.028Zm0,0A4.972,4.972,0,1,0,29.972,25,4.978,4.978,0,0,0,25,20.028Zm8.283-8.107H16.717a4.8,4.8,0,0,0-4.8,4.8V33.283a4.8,4.8,0,0,0,4.8,4.8H33.283a4.8,4.8,0,0,0,4.8-4.8V16.717A4.8,4.8,0,0,0,33.283,11.922ZM25,33.611A8.611,8.611,0,1,1,33.611,25,8.621,8.621,0,0,1,25,33.611ZM33.887,18.17a2.037,2.037,0,1,1,2.037-2.037A2.04,2.04,0,0,1,33.887,18.17ZM25,20.028A4.972,4.972,0,1,0,29.972,25,4.978,4.978,0,0,0,25,20.028Z" transform="translate(210 67)"/>
        </g>
    </symbol>

    <symbol id="icon-map" viewBox="0 0 20 20">
    <title>Map</title>
        <defs>
            <clipPath>
            <rect width="20" height="20" transform="translate(449 550)"/>
            </clipPath>
        </defs>
        <g transform="translate(-449 -550)" clip-path="url(#clip-path)">
            <g transform="translate(449 550)">
            <path d="M10,0A6.88,6.88,0,0,0,3.12,6.88c0,2.9,4,9.571,5.9,12.58a1.16,1.16,0,0,0,1.962,0c1.9-3.009,5.9-9.682,5.9-12.579A6.88,6.88,0,0,0,10,0Zm0,11.081A3.891,3.891,0,1,1,13.891,7.19,3.891,3.891,0,0,1,10,11.081Z"/>
            </g>
        </g>
    </symbol>

    <symbol id="icon-clock" viewBox="0 0 20 20">
    <title>Clock</title>
        <defs>
            <clipPath>
            <rect width="20" height="20" transform="translate(449 628)"/>
            </clipPath>
        </defs>
        <g transform="translate(-449 -628)" clip-path="url(#clip-path)">
            <path d="M10,0A10,10,0,1,0,20,10,10.011,10.011,0,0,0,10,0Zm4.756,15.172a.833.833,0,0,1-1.178,0L9.411,11.006a.83.83,0,0,1-.244-.589V5a.833.833,0,0,1,1.667,0v5.072l3.923,3.922a.832.832,0,0,1,0,1.178Zm0,0" transform="translate(449 628)"/>
        </g>
    </symbol>

    <symbol id="icon-phone" viewBox="0 0 20 20">
    <title>Phone</title>
        <defs>
            <clipPath>
            <rect width="20" height="20" transform="translate(449 712)"/>
            </clipPath>
        </defs>
        <g transform="translate(-449 -712)" clip-path="url(#clip-path)">
            <g transform="translate(449 712)">
            <g>
                <path d="M19.456,14.678l-2.791-2.791a1.856,1.856,0,0,0-3.09.7,1.9,1.9,0,0,1-2.193,1.2A8.607,8.607,0,0,1,6.2,8.6,1.807,1.807,0,0,1,7.394,6.4a1.856,1.856,0,0,0,.7-3.09L5.3.523a1.991,1.991,0,0,0-2.691,0L.716,2.417C-1.178,4.411.915,9.694,5.6,14.379s9.968,6.878,11.962,4.884l1.894-1.894A1.991,1.991,0,0,0,19.456,14.678Z"/>
            </g>
            </g>
        </g>
    </symbol>

    <symbol id="icon-mail" viewBox="0 0 20 20">
    <title>Mail</title>
        <defs>
            <clipPath>
            <rect width="20" height="20" transform="translate(449 786)"/>
            </clipPath>
        </defs>
        <g transform="translate(-449 -786)" clip-path="url(#clip-path)">
            <g transform="translate(449 786)">
            <g>
                <g>
                <path d="M19.824,3.973,13.758,10l6.066,6.027A1.738,1.738,0,0,0,20,15.273V4.727A1.737,1.737,0,0,0,19.824,3.973Z"/>
                </g>
            </g>
            <g>
                <g>
                <path d="M18.242,2.969H1.758A1.737,1.737,0,0,0,1,3.145l7.752,7.713a1.759,1.759,0,0,0,2.486,0L19,3.145A1.737,1.737,0,0,0,18.242,2.969Z"/>
                </g>
            </g>
            <g>
                <g>
                <path d="M.176,3.973A1.737,1.737,0,0,0,0,4.727V15.273a1.737,1.737,0,0,0,.176.753L6.242,10Z"/>
                </g>
            </g>
            <g>
                <g>
                <path d="M12.93,10.829l-.858.858a2.933,2.933,0,0,1-4.143,0l-.858-.858L1,16.855a1.737,1.737,0,0,0,.753.176H18.242A1.737,1.737,0,0,0,19,16.855Z"/>
                </g>
            </g>
            </g>
        </g>
    </symbol>

    <symbol id="icon-place" viewBox="0 0 15 15">
        <title>Place</title>
            <defs>
                <clipPath>
                <rect width="15" height="15"/>
                </clipPath>
            </defs>
            <g clip-path="url(#clip-path)">
                <g transform="translate(2.34)">
                <path d="M7.5,0A5.16,5.16,0,0,0,2.34,5.16c0,2.172,3,7.179,4.424,9.435a.87.87,0,0,0,1.471,0C9.661,12.338,12.66,7.333,12.66,5.16A5.16,5.16,0,0,0,7.5,0Zm0,8.311a2.918,2.918,0,1,1,2.918-2.918A2.918,2.918,0,0,1,7.5,8.311Z" transform="translate(-2.34)"/>
                </g>
            </g>
    </symbol>


    <symbol id="icon-down" viewBox="0 0 35 35">
    <title>Down</title>
        <defs>
            <clipPath>
            <rect width="35" height="35" transform="translate(918 980)"/>
            </clipPath>
        </defs>
        <g transform="translate(-918 -980)" clip-path="url(#clip-path)">
            <g transform="translate(918.005 980)">
            <g transform="translate(0)">
                <g>
                <path d="M16.988,18.012a.726.726,0,0,0,1.028,0L34.791,1.237A.733.733,0,0,0,34.777.209a.736.736,0,0,0-1.014,0L17.506,16.466,1.249.209A.729.729,0,0,0,.213.223a.736.736,0,0,0,0,1.014Z" transform="translate(-0.011 0)"/>
                <path d="M34.794,40.949a.731.731,0,0,0-1.021,0L17.517,57.206,1.26,40.949a.733.733,0,0,0-1.028.015.736.736,0,0,0,0,1.014L17.006,58.752a.726.726,0,0,0,1.028,0L34.809,41.977A.733.733,0,0,0,34.794,40.949Z" transform="translate(-0.022 -23.965)"/>
                </g>
            </g>
            </g>
        </g>
    </symbol>

    <symbol id="icon-whatsapp" viewBox="0 0 50 50">
    <title>WhatsApp</title>
        <defs>
            <clipPath>
            <rect width="50" height="50" transform="translate(1742 3950)" fill="#fff"/>
            </clipPath>
        </defs>
        <g transform="translate(-1742 -3950)" clip-path="url(#clip-path)">
            <rect width="50" height="50" transform="translate(1742 3950)" fill="#3a6653"/>
            <g transform="translate(1749.515 3957.496)">
            <path d="M12.024,47l2.449-8.7a17.456,17.456,0,1,1,6.521,6.389Zm9.429-5.486.535.326A14.5,14.5,0,1,0,17.32,37.28l.36.561L16.27,42.85Z" transform="translate(-12.024 -11.993)" fill="#fff"/>
            <path d="M29.833,26.891,28.7,26.829a1.37,1.37,0,0,0-.974.333,5.162,5.162,0,0,0-1.7,2.6c-.4,1.792.219,3.986,1.829,6.181a18.387,18.387,0,0,0,9.911,7.2,4.83,4.83,0,0,0,4.09-.506,3.658,3.658,0,0,0,1.592-2.322l.181-.845a.587.587,0,0,0-.328-.656l-3.83-1.765a.587.587,0,0,0-.711.175l-1.5,1.949a.43.43,0,0,1-.484.144A11.773,11.773,0,0,1,30.4,33.87a.435.435,0,0,1,.055-.485L31.9,31.723a.587.587,0,0,0,.1-.615l-1.651-3.862A.587.587,0,0,0,29.833,26.891Z" transform="translate(-17.231 -17.556)" fill="#fff"/>
            </g>
        </g>
    </symbol>

</svg>