<svg version="1.1" xmlns="http://www.w3.org/2000/svg" xmlns:xlink="http://www.w3.org/1999/xlink">

	<symbol id="icon--instagram" viewBox="0 0 337.6 337.6">
		<title>Instagram</title>
		<g>
			<path d="M168.7,337.6C75.5,337.5-0.2,261.7,0,168.6C0.2,75.3,76-0.3,169.1,0c93.2,0.2,168.5,75.7,168.5,168.8
				C337.6,262,261.8,337.7,168.7,337.6z M262.5,169c0-11.5,0-23,0-34.5c-0.1-34.2-25.3-59.4-59.5-59.4c-23.1,0-46.3,0-69.4,0
				c-32.9,0-58.5,25.6-58.6,58.5c-0.1,23.5-0.1,47,0,70.5c0.1,32.9,25.6,58.4,58.6,58.5c23.5,0.1,47,0.1,70.5,0
				c32.7-0.1,58.3-25.6,58.4-58.3C262.6,192.5,262.5,180.8,262.5,169z"/>
			<path d="M241.6,169c0,11.4,0,22.8,0,34.1c-0.1,22.7-15.8,38.4-38.4,38.5c-23,0.1-46,0.1-69,0c-22.4-0.1-38.2-15.9-38.2-38.3
				c0-23,0-46,0-69c0-22.4,15.8-38.2,38.2-38.3c23.1-0.1,46.2-0.1,69.4,0c22.2,0.1,37.9,16,38,38.2C241.7,145.8,241.6,157.4,241.6,169
				z M216.7,168.7c0-26.3-21.7-47.9-48-47.9c-26.3,0-47.9,21.7-47.9,48c0,26.3,21.8,47.9,48,47.9C195.2,216.7,216.8,195,216.7,168.7z
				M219.1,126.1c4.5,0,8.1-3.5,8.1-8s-3.6-8-8.1-8c-4.5,0-8.1,3.5-8.2,8C211,122.5,214.6,126.1,219.1,126.1z"/>
			<path d="M197.9,168.7c0,16-13.1,29.2-29.1,29.2c-15.9,0-29.2-13.1-29.2-29.1c0-15.9,13.1-29.2,29.1-29.2
				C184.7,139.6,197.9,152.8,197.9,168.7z"/>
		</g>
	</symbol>

	<symbol id="logo" viewBox="0 0 1810 748">
		<title>Logo Dreamy Doll</title>
		<g>
			<path d="M76.7,486.8c-15-1.9-25.3-5.9-30.9-11.9c-5.6-6-8.1-15.9-7.3-29.5c2.6-37.5,8.8-83.7,18.5-138.8
				s21.5-108.1,35.4-159.2c2.6-9.4,7.9-16.1,15.7-19.9c7.9-3.8,18.2-5.7,30.9-5.7c22.8,0,34.3,6.4,34.3,19.3c0,5.3-1.1,11.4-3.4,18.2
				c-9.8,30.3-19.5,70.9-29.2,121.8c-9.8,50.9-16.7,99.4-20.8,145.6c11.2,1.1,24,1.7,38.2,1.7c65.6,0,114.5-20,146.9-60.2
				c32.4-40.1,48.6-93.7,48.6-160.6c0-45-12.7-79.8-38.2-104.4C290,78.5,254,66.2,207.6,66.2c-30,0-59.7,4.7-89.1,14.2
				c-29.4,9.5-55.9,22-79.5,37.5c-4.9,3.4-10.1,5.1-15.7,5.1c-6.4,0-11.4-2.7-15.2-8.2c-3.8-5.5-5.6-12.2-5.6-20.2
				C2.5,85.5,4,78,7,72.1c3-5.8,8.1-11.2,15.2-16.1c25.9-17.8,56.2-31.3,91-40.6S181.6,1.5,213.8,1.5c45.7,0,85.2,8,118.6,24.1
				c33.3,16.1,59,39.6,77,70.7s27,68.5,27,112.4c0,57.1-11.2,107-33.7,149.6c-22.5,42.6-55.3,75.6-98.3,99
				c-43.1,23.5-94.4,35.2-154,35.2C128.6,492.5,104,490.6,76.7,486.8z"/>
			<path d="M443.1,469.8c-5.8-15.1-8.7-39.4-8.7-72.6c0-49.2,6.9-95.9,20.8-140.2c3.4-11,8.9-19,16.6-24.1
				c7.7-5.1,18.5-7.7,32.3-7.7c7.5,0,12.7,0.9,15.7,2.8c3,1.9,4.5,5.5,4.5,10.8c0,6.1-2.8,19.7-8.4,40.9c-3.8,15.1-6.7,28.4-9,39.7
				s-4.1,25.4-5.6,42c12.4-32.5,26.2-59,41.6-79.5c15.3-20.4,30.4-35,45.2-43.7c14.8-8.7,28.4-13.1,40.7-13.1
				c24.3,0,36.5,12.3,36.5,36.9c0,4.9-1.7,16.8-5.1,35.8c-3,15.1-4.5,24.6-4.5,28.4c0,13.2,4.7,19.9,14,19.9c10.5,0,24-8.3,40.5-25
				c4.9-4.9,9.9-7.4,15.2-7.4c4.9,0,8.7,2.2,11.5,6.5s4.2,10.1,4.2,17.3c0,14-3.8,25-11.2,32.9c-10.5,11-22.8,20.4-36.8,28.1
				c-14,7.8-28.9,11.6-44.7,11.6c-19.9,0-34.9-5.1-45.2-15.3c-10.3-10.2-15.5-24-15.5-41.4c0-5.7,0.6-11.4,1.7-17
				c0.8-7.6,1.1-12.7,1.1-15.3c0-6-2.1-9.1-6.2-9.1c-5.6,0-13,6.3-22.2,19c-9.2,12.7-18.3,29.4-27.2,50.2c-9,20.8-16.3,42.8-21.9,65.8
				c-4.1,17.8-8.9,29.8-14.3,36c-5.4,6.2-14,9.4-25.6,9.4C459,492.5,449,484.9,443.1,469.8z"/>
			<path d="M951.1,369.9c2.8,4.5,4.2,10.8,4.2,18.7c0,15.1-3.6,26.9-10.7,35.2c-13.9,17-33.4,32.7-58.7,47.1
				c-25.3,14.4-52.3,21.6-81.2,21.6c-39.3,0-69.9-10.8-91.6-32.4c-21.7-21.6-32.6-51.1-32.6-88.6c0-26.1,5.4-50.4,16.3-72.9
				c10.9-22.5,25.9-40.4,45.2-53.6c19.3-13.2,41.1-19.9,65.5-19.9c21.7,0,39.1,6.5,52.3,19.6c13.1,13,19.7,30.8,19.7,53.1
				c0,26.1-9.3,48.5-27.8,67.3s-49.9,33.6-94.1,44.6c9.4,17.4,27.2,26.1,53.4,26.1c16.9,0,36-6,57.6-17.9
				c21.5-11.9,40.2-27.5,55.9-46.8c4.5-5.3,9.5-8,15.2-8C944.4,363.1,948.3,365.4,951.1,369.9z M762.8,305.2
				c-9.5,16.3-14.3,36-14.3,59v1.1c22.1-5.3,39.5-13.2,52.3-23.8c12.7-10.6,19.1-22.9,19.1-36.9c0-7.2-2-13-5.9-17.3
				c-3.9-4.4-9.3-6.5-16-6.5C784.1,280.8,772.4,288.9,762.8,305.2z"/>
			<path d="M920.5,467c-13.9-17-20.8-39.4-20.8-67c0-30.3,6.9-58.9,20.8-86c13.8-27,32.3-48.8,55.3-65.3
				c23-16.5,47.5-24.7,73.3-24.7c8.2,0,13.8,1.6,16.6,4.8c2.8,3.2,5.1,9,7,17.3c7.9-1.5,16.1-2.3,24.7-2.3c18.3,0,27.5,6.6,27.5,19.9
				c0,8-2.8,26.9-8.4,56.8c-8.6,43.5-12.9,73.8-12.9,90.8c0,5.7,1.4,10.2,4.2,13.6c2.8,3.4,6.5,5.1,11,5.1c7.1,0,15.7-4.6,25.8-13.9
				c10.1-9.3,23.8-24.3,41-45.1c4.5-5.3,9.6-8,15.2-8c4.9,0,8.7,2.3,11.5,6.8s4.2,10.8,4.2,18.7c0,15.1-3.6,26.9-10.7,35.2
				c-15.4,19.3-31.7,35.6-48.9,48.8c-17.2,13.2-33.9,19.9-50,19.9c-12.4,0-23.7-4.3-34-12.8c-10.3-8.5-18.1-20.1-23.3-34.9
				c-19.5,31.8-44,47.7-73.6,47.7C952.9,492.5,934.3,484,920.5,467z M1019.9,420.4c7.5-9.8,12.9-22.9,16.3-39.2l20.8-104.4
				c-15.7,0.4-30.2,6.3-43.5,17.9c-13.3,11.5-23.9,26.8-31.8,45.7c-7.9,18.9-11.8,39-11.8,60.2c0,11.7,2.3,20.4,7,26.1
				s11.1,8.5,19.4,8.5C1004.5,435.2,1012.4,430.2,1019.9,420.4z"/>
			<path d="M1180.9,469.8c-5.8-15.1-8.7-39.4-8.7-72.6c0-49.2,6.9-95.9,20.8-140.2c3.4-11,8.9-19,16.6-24.1
				c7.7-5.1,18.4-7.7,32.3-7.7c7.5,0,12.7,0.9,15.7,2.8c3,1.9,4.5,5.5,4.5,10.8c0,6.1-2.8,19.7-8.4,40.9c-3.8,15.1-6.7,28.3-9,39.5
				c-2.2,11.2-4.1,25.1-5.6,41.7c10.1-29.5,22.2-54.5,36.2-74.9c14.1-20.4,28.5-35.7,43.3-45.7c14.8-10,28.7-15,41.9-15
				c13.1,0,22.4,3,27.8,9.1c5.4,6.1,8.2,15.3,8.2,27.8c0,12.1-3.6,34.1-10.7,65.8c-3,13.6-5.1,23.8-6.2,30.6
				c18.7-46.5,39.5-80.4,62.4-101.6c22.8-21.2,44.2-31.8,64.1-31.8c24.3,0,36.5,12.3,36.5,36.9c0,14.8-4.1,41.4-12.4,80
				c-7.1,32.9-10.7,54.7-10.7,65.3c0,15.1,5.4,22.7,16.3,22.7c7.5,0,16.4-4.6,26.7-13.9c10.3-9.3,24.1-24.3,41.3-45.1
				c4.5-5.3,9.6-8,15.2-8c4.9,0,8.7,2.3,11.5,6.8s4.2,10.8,4.2,18.7c0,15.1-3.6,26.9-10.7,35.2c-16.1,20.1-33.4,36.5-52,49.4
				c-18.5,12.9-39.6,19.3-63.2,19.3c-19.1,0-33.5-5.6-43.3-16.7c-9.8-11.2-14.6-27.3-14.6-48.5c0-10.6,2.6-29.5,7.9-56.8
				c4.9-23.8,7.3-40.3,7.3-49.4c0-6-2.1-9.1-6.2-9.1c-4.9,0-11.8,6.3-20.8,19s-18,29.4-27,50.2c-9,20.8-16.3,42.8-21.9,65.8
				c-4.1,18.2-8.9,30.3-14.3,36.3c-5.4,6.1-14.1,9.1-26.1,9.1c-12.4,0-21.6-6-27.8-17.9s-9.3-26.4-9.3-43.4c0-14.4,1.9-35.2,5.6-62.4
				c3-24.2,4.5-40.1,4.5-47.7c0-6-2.1-9.1-6.2-9.1c-5.6,0-12.7,6.8-21.3,20.4c-8.6,13.6-16.9,31-25,52.2c-8.1,21.2-14.5,42-19.4,62.4
				c-4.1,17.8-8.9,29.8-14.3,36c-5.4,6.2-14,9.4-25.6,9.4C1196.7,492.5,1186.7,484.9,1180.9,469.8z"/>
			<path d="M1803.7,228.6c3.4,2.3,5.1,6.1,5.1,11.4c0,9.1-4.9,41.4-14.6,97.1c-8.6,53.4-13.7,85-15.2,94.8
				c-13.9,97.2-33,174.3-57.3,231c-24.3,56.8-56.8,85.1-97.2,85.1c-19.1,0-34.7-6-46.6-17.9s-18-27.5-18-46.8c0-17.8,4-36,12.1-54.5
				c8.1-18.5,23-39.8,44.9-63.9c21.9-24,52.9-51.6,93-82.6l1.7-13.1c2.6-14,5.6-34.1,9-60.2c-7.5,27.2-18,48-31.5,62.1
				s-27.7,21.3-42.7,21.3c-16.9,0-30.6-7.9-41.3-23.6c-10.7-15.7-16-35.3-16-58.8c0-28.4,1.9-54.4,5.6-78c3.7-23.6,9.9-48.7,18.5-75.2
				c3.7-11.4,9-19.5,15.7-24.4c6.7-4.9,17.4-7.4,32-7.4c8.2,0,13.9,1.3,17.1,4c3.2,2.6,4.8,6.6,4.8,11.9c0,3-2.1,13.2-6.2,30.7
				c-3.8,14-6.7,26.7-9,38c-3,15.5-5.6,30.4-7.9,44.6s-3.4,25.8-3.4,34.9c0,14.4,3.9,21.6,11.8,21.6c5.6,0,12.6-5.7,21.1-17
				c8.4-11.4,17.4-28.6,27-51.6c9.6-23.1,18.8-51.5,27.8-85.1c3-11.4,7.6-19.5,13.8-24.4c6.2-4.9,15.4-7.4,27.8-7.4
				C1794.4,225.1,1800.4,226.3,1803.7,228.6z M1662.1,659.9c11.6-22,23.2-58.5,34.8-109.5c-28.8,24.6-49.7,47-62.7,67.3
				c-12.9,20.2-19.4,37.9-19.4,53.1c0,6.4,1.2,11.7,3.7,15.9c2.4,4.2,6.5,6.2,12.1,6.2C1640,692.9,1650.5,681.9,1662.1,659.9z"/>
		</g>
		<g>
			<g>
				<path d="M1099.6,737.9c-6.3-0.8-10.6-2.5-13-5c-2.4-2.5-3.4-6.7-3.1-12.4c1.1-15.7,3.7-35.2,7.8-58.3
					c4.1-23.1,9-45.4,14.9-66.9c1.1-4,3.3-6.8,6.6-8.3c3.3-1.6,7.6-2.4,13-2.4c9.6,0,14.4,2.7,14.4,8.1c0,2.2-0.5,4.8-1.4,7.6
					c-4.1,12.7-8.2,29.8-12.3,51.1c-4.1,21.4-7,41.8-8.7,61.1c4.7,0.5,10.1,0.7,16.1,0.7c27.5,0,48.1-8.4,61.7-25.3
					c13.6-16.8,20.4-39.3,20.4-67.5c0-18.9-5.3-33.5-16.1-43.9c-10.7-10.3-25.8-15.5-45.3-15.5c-12.6,0-25.1,2-37.4,6
					c-12.3,4-23.5,9.2-33.4,15.7c-2.1,1.4-4.2,2.1-6.6,2.1c-2.7,0-4.8-1.2-6.4-3.5c-1.6-2.3-2.4-5.1-2.4-8.5c0-3.8,0.6-7,1.9-9.4
					c1.3-2.5,3.4-4.7,6.4-6.8c10.8-7.5,23.6-13.2,38.2-17c14.6-3.9,28.7-5.8,42.2-5.8c19.2,0,35.8,3.4,49.8,10.1
					c14,6.8,24.8,16.7,32.3,29.7c7.6,13,11.3,28.8,11.3,47.2c0,24-4.7,44.9-14.2,62.8s-23.2,31.7-41.3,41.6
					c-18.1,9.8-39.6,14.8-64.7,14.8C1121.3,740.3,1111,739.5,1099.6,737.9z"/>
				<path d="M1130.3,747.2c-9.3,0-20-0.8-31.7-2.4c-8-1-13.7-3.4-17.2-7.2c-3.7-4-5.3-9.9-4.9-17.5l0-0.1
					c1.1-16,3.8-35.8,7.9-59c4.1-23.3,9.2-46,15-67.5c1.6-5.9,5.2-10.4,10.3-12.8c4.3-2.1,9.5-3.1,16-3.1c19.3,0,21.4,10.6,21.4,15.1
					c0,3-0.6,6.2-1.8,9.8c-4,12.3-8,29.3-12,50.2c-3.5,18.5-6.2,36.4-8,53.4c2.6,0.1,5.4,0.2,8.4,0.2c25.5,0,43.9-7.4,56.3-22.7
					c12.5-15.5,18.9-36.7,18.9-63.1c0-17.1-4.6-29.8-13.9-38.8c-9.3-9-22.9-13.5-40.4-13.5c-11.8,0-23.6,1.9-35.3,5.6
					c-11.6,3.7-22.3,8.7-31.6,14.9c-3.2,2.2-6.8,3.3-10.5,3.3c-5,0-9.3-2.3-12.2-6.5c-2.4-3.5-3.6-7.6-3.6-12.4
					c0-4.9,0.9-9.1,2.7-12.6c1.8-3.5,4.7-6.7,8.6-9.4c11.5-7.9,25.1-14,40.4-18c15.2-4,30-6.1,44-6.1c20.2,0,37.9,3.6,52.8,10.8
					c15.2,7.4,27.1,18.3,35.3,32.5c8.1,14.1,12.3,31.1,12.3,50.7c0,25-5,47.3-15,66.1c-10,19-24.9,34-44.1,44.5
					c-19.1,10.4-41.9,15.6-68,15.6C1130.4,747.2,1130.4,747.2,1130.3,747.2z M1090.5,720.9c-0.3,5.2,0.9,6.8,1.2,7.2
					c0.4,0.5,2.3,2,8.7,2.8l0.1,0c11.1,1.5,21.1,2.3,29.8,2.3c0.1,0,0.1,0,0.2,0c23.7,0,44.3-4.7,61.3-13.9
					c16.8-9.1,29.7-22.2,38.4-38.7c8.9-16.8,13.4-36.8,13.4-59.5c0-17.1-3.5-31.8-10.4-43.7c-6.8-11.7-16.7-20.8-29.3-26.9
					c-13-6.3-28.7-9.4-46.7-9.4c-12.8,0-26.5,1.9-40.4,5.6c-13.8,3.7-25.9,9.1-36.1,16c-2,1.4-3.4,2.8-4.1,4.2
					c-0.7,1.4-1.1,3.6-1.1,6.2c0,1.9,0.4,3.4,1.1,4.5c0.2,0.2,0.3,0.4,0.3,0.4c0,0,0.1,0,0.3,0c0.9,0,1.7-0.3,2.6-0.9l0.2-0.1
					c10.4-6.8,22.2-12.4,35.1-16.5c13-4.2,26.3-6.3,39.5-6.3c21.3,0,38.2,5.9,50.2,17.5c12.1,11.7,18.2,28.1,18.2,48.9
					c0,29.6-7.4,53.8-22,71.9c-14.9,18.5-37.5,27.9-67.2,27.9c-6.3,0-11.8-0.2-16.8-0.7l-6.9-0.7l0.6-6.9c1.7-19.5,4.7-40.3,8.8-61.8
					c4.1-21.5,8.3-39,12.5-52c0.7-2.2,1.1-4,1.1-5.4c-0.6-0.3-2.5-1.1-7.4-1.1c-4.3,0-7.6,0.6-9.9,1.7c-1,0.5-2.2,1.4-2.9,3.9
					c-5.7,21-10.7,43.3-14.7,66.2C1094.2,686.1,1091.6,705.4,1090.5,720.9z"/>
			</g>
		</g>
		<g>
			<path d="M1391.4,669c1.1,2.1,1.7,4.7,1.7,7.9c0,7.6-2.3,12.2-6.8,13.6c-9.4,3.3-19.8,5.2-31.2,5.7
				c-3,13.3-8.9,24-17.7,32.1c-8.8,8-18.8,12-30,12c-9.4,0-17.5-2.3-24.2-6.9s-11.8-10.7-15.2-18.3c-3.5-7.6-5.2-15.9-5.2-24.8
				c0-12.1,2.3-22.8,6.8-32.3c4.6-9.5,10.8-16.8,18.9-22.2c8-5.3,16.9-8,26.7-8c11.9,0,21.6,4.2,28.9,12.5
				c7.3,8.3,11.6,18.6,12.9,30.9c7.4-0.5,16.2-2.1,26.4-4.8c1.3-0.3,2.4-0.5,3.3-0.5C1388.8,665.9,1390.3,666.9,1391.4,669z
				M1322.4,708.8c3.7-4.1,6.2-10.1,7.4-17.9c-4.9-3.3-8.6-7.7-11.2-13.1c-2.6-5.4-3.9-11.1-3.9-17.2c0-2.5,0.2-5.1,0.7-7.6h-1.2
				c-6.3,0-11.5,3.1-15.7,9.2c-4.2,6.1-6.2,14.7-6.2,25.9c0,8.7,1.7,15.4,5.1,20c3.4,4.6,7.3,6.9,11.9,6.9
				C1314.3,715,1318.7,712.9,1322.4,708.8z"/>
			<path d="M1307.4,747.3c-10.8,0-20.3-2.7-28.2-8.1c-7.7-5.3-13.6-12.5-17.6-21.2c-3.9-8.5-5.8-17.8-5.8-27.7
				c0-13.1,2.5-25,7.5-35.3c5.1-10.6,12.3-19,21.3-25c9.2-6.1,19.4-9.2,30.5-9.2c14,0,25.5,5,34.2,14.9c6.8,7.8,11.4,17.1,13.5,27.8
				c5.5-0.8,11.8-2.1,18.7-3.9c1.9-0.5,3.6-0.7,5.1-0.7c4.6,0,8.6,2.5,10.9,6.8l0,0c1.6,3.1,2.5,6.8,2.5,11.2
				c0,13.6-6.3,18.5-11.6,20.2c-8.5,3-17.9,4.9-27.9,5.8c-3.6,12.4-9.8,22.7-18.5,30.6C1332,742.6,1320.4,747.3,1307.4,747.3z
				M1315.2,634.8c-8.4,0-15.9,2.2-22.8,6.8c-7,4.7-12.4,11-16.4,19.4c-4.1,8.5-6.1,18.3-6.1,29.3c0,7.9,1.5,15.2,4.6,21.9
				c3,6.5,7.1,11.6,12.8,15.5c5.5,3.8,12.2,5.7,20.2,5.7c9.5,0,17.7-3.3,25.3-10.2c7.7-7,12.9-16.6,15.6-28.4l1.2-5.2l5.4-0.2
				c10.6-0.4,20.4-2.2,29.1-5.3l0.2-0.1c1.4-0.4,1.9-3.9,1.9-6.9c0-1.8-0.2-3-0.5-3.8c-0.1,0-0.3,0.1-0.5,0.1
				c-10.5,2.8-19.8,4.5-27.7,5l-6.7,0.4l-0.7-6.7c-1.1-10.9-4.8-19.7-11.2-27C1332.9,638.1,1325.1,634.8,1315.2,634.8z M1385.2,672.2
				L1385.2,672.2L1385.2,672.2z M1309.4,722C1309.3,722,1309.3,722,1309.4,722c-4.8,0-11.7-1.7-17.6-9.8c-4.3-5.8-6.4-13.9-6.4-24.2
				c0-12.5,2.5-22.5,7.5-29.8c6.9-10.1,15.5-12.2,21.5-12.2h9.6l-1.5,8.3c-0.4,2.1-0.6,4.3-0.6,6.4c0,5,1,9.7,3.2,14.1
				c2.1,4.3,5,7.7,8.9,10.4l3.7,2.5l-0.7,4.4c-1.5,9.1-4.5,16.3-9.1,21.4l0,0C1322.7,719,1316.3,722,1309.4,722z M1307.8,662.3
				c-1.1,0.9-2.3,2.1-3.4,3.8c-3.3,4.9-5,12.3-5,21.9c0,7.2,1.2,12.5,3.7,15.9c3,4.1,5.4,4,6.3,4.1c3,0,5.5-1.2,7.8-3.9l0,0
				c2.2-2.4,3.8-5.9,4.9-10.4c-4.1-3.6-7.4-7.9-9.8-12.9C1309.5,675,1308,668.8,1307.8,662.3z"/>
		</g>
		<g>
			<path d="M1467.1,688.8c1.2,1.9,1.8,4.5,1.8,7.9c0,6.4-1.5,11.3-4.5,14.8c-6.8,8.4-14.1,15.3-22.1,20.7
				c-7.9,5.4-16.9,8.1-27,8.1c-13.8,0-24.1-6.3-30.8-19.1c-6.7-12.7-10-29.2-10-49.3c0-19.4,2.5-41.5,7.4-66.3
				c5-24.8,12.3-46.1,21.9-63.9c9.7-17.8,21.2-26.7,34.6-26.7c7.6,0,13.5,3.5,17.8,10.6c4.3,7.1,6.5,17.2,6.5,30.4
				c0,18.9-5.2,40.8-15.6,65.8c-10.4,25-24.5,49.7-42.2,74.1c1.1,6.5,2.9,11.2,5.4,13.9c2.5,2.8,5.8,4.2,9.9,4.2
				c6.4,0,12.1-1.9,17-5.6s11.1-10.1,18.6-19.2c1.9-2.2,4-3.3,6.4-3.3C1464.3,685.9,1465.9,686.9,1467.1,688.8z M1420.9,558.4
				c-4.6,13.2-8.6,29.6-12,49.1c-3.5,19.5-5.3,38.3-5.7,56.2c11.2-18.6,20.1-37.2,26.7-55.9c6.6-18.7,9.9-35.7,9.9-51.1
				c0-12.1-2.2-18.1-6.6-18.1C1429.6,538.6,1425.5,545.2,1420.9,558.4z"/>
			<path d="M1415.3,747.3c-16.4,0-29.1-7.9-37-22.8c-7.2-13.7-10.8-31.4-10.8-52.6c0-19.7,2.5-42.5,7.6-67.6
				c5.1-25.4,12.7-47.5,22.7-65.9c10.9-20.1,24.6-30.4,40.7-30.4c10,0,18.2,4.8,23.8,14c5.1,8.3,7.5,19.4,7.5,34
				c0,19.7-5.4,42.8-16.1,68.5c-10.2,24.5-24.1,49.1-41.2,73.1c1.1,4.7,2.4,6.8,3.2,7.6c0.8,0.9,2,1.9,4.7,1.9c4.9,0,9.1-1.4,12.7-4.2
				c4.4-3.4,10.3-9.5,17.5-18.1c4.1-4.9,8.7-5.9,11.7-5.9c4.5,0,8.3,2.2,10.8,6.2l0,0c1.9,3.1,2.8,6.8,2.8,11.5c0,8-2,14.5-6.1,19.2
				c-7.2,8.9-15.1,16.3-23.5,22.1C1437.1,744.1,1426.7,747.3,1415.3,747.3z M1438.4,522c-10.7,0-20,7.5-28.4,23
				c-9.3,17.1-16.4,37.9-21.2,61.9c-4.8,24.2-7.3,46.1-7.3,64.9c0,18.9,3.1,34.5,9.2,46.1c5.5,10.5,13.3,15.3,24.6,15.3
				c8.7,0,16.3-2.3,23.1-6.9c7.3-5,14.2-11.5,20.5-19.3l0.1-0.2c1.9-2.2,2.8-5.6,2.8-10.2c0-1.5-0.2-2.5-0.3-3.2
				c-0.1,0.1-0.2,0.2-0.3,0.3c-7.9,9.5-14.4,16.1-19.7,20.2c-6.1,4.7-13.3,7-21.2,7c-6.1,0-11.3-2.2-15.1-6.5
				c-3.5-3.8-5.8-9.5-7.1-17.5l-0.5-2.9l1.7-2.4c17.4-23.9,31.3-48.4,41.4-72.7c10-24,15-45.2,15-63.1c0-11.8-1.8-20.8-5.5-26.7
				C1447.2,524.2,1443.5,522,1438.4,522z M1395.8,689.7l0.5-26.1c0.3-18.2,2.3-37.5,5.8-57.3c3.5-19.8,7.6-36.6,12.3-50.2h0
				c6-17.4,11.5-24.5,18.8-24.5c2.5,0,8.6,0.9,11.6,9.1c1.4,3.8,2.1,9.1,2.1,16c0,16.1-3.5,34.1-10.3,53.5
				c-6.7,19-15.9,38.2-27.3,57.2L1395.8,689.7z M1427.5,560.7L1427.5,560.7c-4.4,12.8-8.4,29-11.8,48c-1.4,7.8-2.5,15.6-3.4,23.2
				c4.2-8.8,7.8-17.6,10.9-26.4c6.3-17.8,9.5-34.2,9.5-48.8c0-3.4-0.2-5.9-0.4-7.7C1431.1,551.3,1429.5,555,1427.5,560.7z"/>
		</g>
		<g>
			<path d="M1523.1,703.1c1.9,0,3.4,1.1,4.6,3.2c1.2,2.1,1.8,4.7,1.8,7.8c0,6.7-2.4,12-7.1,16
				c-8.2,6.8-17.5,10.2-27.8,10.2c-14.9,0-25.9-6.3-32.8-19s-10.4-29.1-10.4-49.5c0-19.4,2.5-41.5,7.4-66.3
				c5-24.8,12.3-46.1,21.9-63.9c9.7-17.8,21.2-26.7,34.6-26.7c7.6,0,13.5,3.5,17.8,10.6c4.3,7.1,6.5,17.2,6.5,30.4
				c0,18.9-5.2,40.8-15.5,65.8c-10.3,25-24.3,49.6-42.1,73.9c1.1,6.5,3.1,11.2,5.9,14.1c2.8,2.9,6.7,4.3,11.6,4.3
				c2.7,0,5.7-0.8,9.1-2.4s6.5-3.7,9.3-6.2C1519.6,703.9,1521.4,703.1,1523.1,703.1z M1497.8,558.4c-4.6,13.2-8.6,29.6-12,49.1
				c-3.5,19.5-5.3,38.3-5.7,56.2c11.2-18.6,20.1-37.2,26.7-55.9c6.6-18.7,9.9-35.7,9.9-51.1c0-12.1-2.2-18.1-6.6-18.1
				C1506.5,538.6,1502.4,545.2,1497.8,558.4z"/>
			<path d="M1494.5,747.3c-17.4,0-30.8-7.8-38.9-22.6c-7.5-13.6-11.2-31.4-11.2-52.8c0-19.7,2.5-42.5,7.6-67.6
				c5.1-25.4,12.7-47.5,22.7-65.9c10.9-20.1,24.6-30.4,40.7-30.4c10,0,18.2,4.8,23.8,14c5.1,8.3,7.5,19.4,7.5,34
				c0,19.8-5.4,42.8-16,68.5c-10.1,24.5-24,49-41.1,72.8c1,4.3,2.4,6.5,3.4,7.5c0.9,1,2.6,2.2,6.6,2.2c1.1,0,3.1-0.3,6.1-1.7
				c2.8-1.3,5.3-3,7.6-5.1c3-2.8,6.4-4.2,9.9-4.2c2.6,0,7.5,0.9,10.7,6.9c1.7,3.2,2.6,6.9,2.6,11.1c0,8.7-3.3,16.1-9.6,21.3
				C1517.4,743.3,1506.6,747.3,1494.5,747.3z M1515.3,522c-10.7,0-20,7.5-28.4,23c-9.3,17.1-16.4,37.9-21.2,61.9
				c-4.8,24.2-7.3,46.1-7.3,64.9c0,19.1,3.2,34.6,9.5,46.1c5.7,10.4,14.2,15.3,26.7,15.3c8.8,0,16.4-2.8,23.4-8.6
				c3.1-2.6,4.6-6,4.6-10.6c0-1.1-0.1-2.1-0.3-3c-3.2,2.8-6.7,5.1-10.6,6.9c-4.3,2-8.4,3-12.1,3c-6.8,0-12.4-2.1-16.5-6.4
				c-3.9-4-6.5-9.8-7.8-17.8l-0.5-2.9l1.7-2.4c17.4-23.7,31.3-48.1,41.3-72.4c9.9-24,14.9-45.2,14.9-63.1c0-11.8-1.8-20.8-5.5-26.7
				C1524.1,524.2,1520.4,522,1515.3,522z M1472.7,689.7l0.5-26.1c0.3-18.2,2.3-37.5,5.8-57.3c3.5-19.8,7.6-36.6,12.3-50.2h0
				c6-17.4,11.5-24.5,18.8-24.5c2.5,0,8.6,0.9,11.6,9.1c1.4,3.8,2.1,9.1,2.1,16c0,16.1-3.5,34.1-10.3,53.5
				c-6.7,19-15.9,38.2-27.3,57.2L1472.7,689.7z M1504.5,560.7L1504.5,560.7c-4.4,12.8-8.4,29-11.8,48c-1.4,7.8-2.5,15.6-3.4,23.2
				c4.2-8.8,7.8-17.6,10.9-26.4c6.3-17.8,9.5-34.2,9.5-48.8c0-3.4-0.2-5.9-0.4-7.7C1508.1,551.3,1506.4,555,1504.5,560.7z"/>
		</g>
		<g>
			<polyline points="-34,0 -34,0 -34,0 	"/>
			<g>
				<polyline class="st1" points="-34,0 -34,0 -34,0 		"/>
			</g>
		</g>
	</symbol>

	<symbol id="icon--menu" viewBox="0 0 408.5 408.9">
		<title>Menu</title>
		<g>
			<path d="M216.1,408.9c-8,0-16,0-24,0c-6.8-0.9-13.7-1.5-20.5-2.6c-42.7-7.1-79.9-25.5-110.5-56.1c-46-45.9-66.2-101.7-60.3-166.3
				c3.9-43.4,20.9-81.7,49.9-114.3c38.5-43.3,87-66.5,144.8-69.4c40.3-2,78.2,7.4,112.7,28.5c53.1,32.4,85.6,79.2,97.1,140.5
				c1.4,7.7,2.1,15.5,3.2,23.2c0,8,0,16,0,24c-0.3,2.9-0.7,5.8-1,8.6c-4.9,44-21.7,82.8-51.3,115.7c-31.5,34.9-70.5,56.7-116.9,65
				C231.6,407.1,223.8,407.9,216.1,408.9z M204.1,153.3c14.8,0,29.5,0,44.3,0c13.6,0,27.2,0.1,40.7-0.1c12-0.2,19.9-11.3,16.2-22.4
				c-2.5-7.6-9-11.7-18.9-11.7c-55,0-109.9,0-164.9,0c-1.8,0-3.7,0.1-5.6,0.4c-9.9,1.6-16.2,11.4-13.5,21.1
				c2.2,7.9,8.6,12.6,17.7,12.6C148.2,153.4,176.2,153.3,204.1,153.3z M204.1,255.6c-14.8,0-29.5,0-44.3,0c-13.6,0-27.2-0.2-40.7,0.1
				c-12,0.2-19.9,11.3-16.2,22.4c2.5,7.6,9,11.7,18.9,11.7c55,0,109.9,0,164.9,0c1.8,0,3.7-0.1,5.6-0.4c9.9-1.6,16.2-11.4,13.5-21.1
				c-2.2-7.9-8.6-12.6-17.7-12.6C260,255.5,232,255.6,204.1,255.6z M203.8,221.4c23.4,0,46.8,0,70.3,0c5.6,0,11.2,0.2,16.8-0.2
				c10.3-0.7,17.4-10.8,14.9-20.8c-2.2-8.6-8.6-13-18.9-13c-55.1,0-110.2,0-165.3,0c-1.5,0-2.9,0-4.4,0.2
				c-10,0.9-17.2,10.8-14.8,20.6c2.1,8.5,8.5,13.2,18.4,13.2C148.5,221.5,176.1,221.4,203.8,221.4z"/>
		</g>
	</symbol>

	<symbol id="icon--right-arrow" viewBox="0 0 345.6 44.2">
		<title>Right Arrow</title>
		<g>
			<path d="M297.4,32.2c-3,0.4-5.8,0.8-8.7,1.1c-4.1,0.4-7-1.3-7.4-4.1c-0.4-3,1.9-5.4,6.2-6c10.1-1.5,20.2-3,30.4-4.6
				c0.5-0.1,0.9-0.2,1.6-1.1c-1.3-0.4-2.6-0.8-3.9-1.1c-5.8-1.3-11.7-2.6-17.6-3.9c-1.1-0.2-2.2-0.5-3.3-0.8c-2.4-0.8-3.3-2.5-2.6-5
				c0.7-2.4,2.4-3.1,4.6-2.7c8.1,1.6,16.2,3.2,24.2,5c6.7,1.5,13.3,3.3,20,5c2.4,0.6,5,1.7,4.7,4.5c-0.2,1.7-1.8,3.8-3.3,4.8
				c-13,8.2-26.6,15.3-41.2,20.3c-0.8,0.3-1.8,0.8-2.5,0.6c-1.9-0.4-4.3-0.7-5.5-2c-0.8-0.9-0.4-3.6,0.3-5
				C294.2,35.3,295.9,33.9,297.4,32.2z"/>
			<path d="M107.1,25.9c6.8,0.8,14.3,1.7,21.8,2.8c3.8,0.5,5.9,3.3,5.4,6.3c-0.5,3.3-3,5.3-6.8,4.9c-7.7-0.8-15.3-1.8-23-2.8
				c-1.2-0.2-2.8-0.3-3.5-1.1c-1.3-1.5-3.1-3.7-2.9-5.3c0.2-1.7,2.4-3.3,4.1-4.4C103.2,25.6,104.9,26,107.1,25.9z"/>
			<path d="M168.8,31.5c4.2,0,8.5-0.2,12.7,0c4.1,0.2,5.8,2,5.9,5.3c0.1,3.4-1.4,5.2-5.7,5.5c-7.7,0.5-15.4,0.5-23.1,0.8
				c-0.2,0-0.5,0-0.7-0.1c-4.7-0.5-7.5-2.9-7.3-6c0.2-3.3,2.8-5.1,7.8-5.2c3.5-0.1,7,0,10.5,0C168.8,31.8,168.8,31.7,168.8,31.5z"/>
			<path d="M54.6,14.9c7.3,1.2,16.2,2.7,25,4.3c3.2,0.6,4.8,2.8,4.3,5.9c-0.5,3.1-2.7,4.9-5.9,4.5c-8.9-1.3-17.7-2.7-26.5-4.4
				c-3.4-0.6-5.1-3.3-4.5-6.2C47.7,15.7,50,14.6,54.6,14.9z"/>
			<path d="M205.1,42.5c-0.8,0-1.5,0-2.2,0c-3.2-0.2-5.8-1.4-6.2-4.8c-0.4-3.4,1.7-5.4,5-5.9c8.3-1.2,16.5-2.4,24.8-3.5
				c3.2-0.4,5,1.3,5.6,4.2c0.7,3.1-0.5,5.6-3.8,6.3c-7.7,1.5-15.5,2.7-23.2,4C205.1,42.8,205.1,42.7,205.1,42.5z"/>
			<path d="M249.5,37.7c-4.9-0.1-7.5-2.2-7.4-5.1c0.1-3.2,1.7-4.9,5.1-5.2c8.1-0.7,16.1-1.8,24.1-2.6c2.9-0.3,4.9,1.1,5.3,4
				c0.4,2.8-0.9,4.7-3.6,5.2C264.6,35.4,256.3,36.7,249.5,37.7z"/>
			<path d="M32.2,18.8c-1.8-0.5-2.8-0.7-3.7-1C20.2,15,12,12.2,3.8,9.3c-2.8-1-4.5-2.8-3.4-6C1.2,0.7,4-0.7,7,0.4
				C15.6,3.7,24.2,7,32.7,10.6c1.3,0.6,2.6,3.1,2.6,4.7C35.2,16.6,33.2,17.8,32.2,18.8z"/>
		</g>
	</symbol>

	<symbol id="icon--send" viewBox="0 0 384 384">
		<title>Send</title>
		<g>
			<path d="M0,204c0-8,0-16,0-24c0.5-4.6,1-9.1,1.7-13.7c5.5-39,21.2-73.5,47.7-102.7c29.7-32.7,66.3-53.2,110-60.7
				C166.2,1.7,173.1,1,180,0c8,0,16,0,24,0c1,0.2,1.9,0.5,2.9,0.6c29,2.2,56.2,10.3,81.1,25.2c50.9,30.4,82.1,74.7,93,133.1
				c1.3,7,2,14,2.9,21.1c0,8,0,16,0,24c-0.2,1-0.6,1.9-0.6,2.9c-2.5,32.9-12.7,63.3-31.1,90.7C321.7,343,279.4,371,225.4,381
				c-7.1,1.3-14.3,2-21.4,3c-8,0-16,0-24,0c-1-0.2-1.9-0.5-2.9-0.6c-38.2-3-72.7-16.2-102.8-39.8C35.5,313,11.5,273.4,2.9,224.7
				C1.7,217.9,0.9,210.9,0,204z M207.5,297.7c6.4,0,11.4-3.8,13.8-10.6c13.8-39.2,27.5-78.4,41.2-117.6c6.3-18.1,12.8-36.2,19-54.4
				c3.2-9.3-1.6-18.4-10.8-19.6c-3.2-0.4-6.7,0.4-9.8,1.5c-47,16.4-93.9,32.9-140.9,49.3c-10.1,3.5-20.3,7-30.3,10.7
				c-5.8,2.1-9.4,7.2-9.5,13.1c-0.1,6.1,2.5,9.7,8.8,12.3c24,10.1,48,20.3,72,30.5c1.6,0.7,3.2,2.3,3.9,4c10.4,24.3,20.7,48.7,30.9,73
				C198.1,295.2,201.9,297.7,207.5,297.7z"/>
		</g>
	</symbol>

	<symbol id="icon--tiktok" viewBox="0 0 337.6 337.5">
		<title>TikTok</title>
		<g>
			<path d="M168.6,0c93.2-0.1,168.9,75.5,168.9,168.7c0.1,93.2-75.6,168.9-168.8,168.8C75.7,337.5,0.2,262.1,0,169
				C-0.2,75.9,75.4,0.2,168.6,0z M154,146.2c-3.4,0-6.4,0-9.4,0c-37.3,0.5-64.1,33.6-56.8,70.2c5.6,28.2,32.2,48.1,61.6,46
				c28-2,52-25.4,53.2-53.3c0.9-22.5,0.3-45,0.4-67.5c0-1.5,0-2.9,0-5.1c14.9,9.9,30.4,15.4,47.8,15.9c0-10.2,0-19.9,0-29.9
				c-29.2-2.4-44.9-18.6-47.8-47.2c-10.2,0-20,0-30,0c0,1.9,0,3.5,0,5.1c0,40,0,80,0,120c0,2,0,4-0.2,6c-1.2,15.5-14,26.7-29.7,26.1
				c-14.5-0.6-26.7-13.5-26.6-28.3c0.1-15.2,12.4-27.6,27.6-28c3.2-0.1,6.4,0,9.9,0C154,166.1,154,156.4,154,146.2z"/>
		</g>
	</symbol>

	<symbol id="icon--top-arrow" viewBox="0 0 352.2 352.2">
		<title>Top Arrow</title>
		<g>
			<path d="M176.3,0c97.6,0.5,176.4,79.6,175.9,176.7c-0.5,96.9-80.1,176.2-176.4,175.5C77.8,351.5-0.4,272.6,0,174.7
				C0.4,78.5,80.2-0.5,176.3,0z M176.3,103.1c-16,0.3-29.1,6.6-38.7,19.5c-9.9,13.3-19.4,27-29,40.5c-8.5,11.9-17.1,23.7-25.4,35.7
				c-6.6,9.4-2.5,21.6,8.1,24.9c6.9,2.1,13.6-0.3,18.3-6.9c17.3-24.2,34.6-48.4,51.8-72.6c8.4-11.8,21.1-11.8,29.5,0.1
				c17.3,24.2,34.5,48.4,51.9,72.5c5.7,7.9,15.3,9.5,22.7,4.2c7.3-5.2,8.9-14.9,3.4-22.6c-18.1-25.5-36.1-51-54.5-76.2
				C205.1,109.6,192,103.6,176.3,103.1z"/>
		</g>
	</symbol>

	<symbol id="icon--whatsapp" viewBox="0 0 337.6 337.6">
		<title>WhatsApp</title>
		<g>
			<path d="M337.6,168.9c-0.2,93.3-75.9,168.8-169.1,168.6C75.3,337.3-0.3,261.5,0,168.4C0.3,75.2,75.8-0.1,168.9,0
				C262.1,0.1,337.8,75.8,337.6,168.9z M82.8,255.3c1.7-0.5,2.8-0.8,3.8-1.2c7.7-3,15.4-5.9,23-9.1c2.2-0.9,3.8-0.7,5.8,0.6
				c19.2,13.2,40.3,18.7,63.5,16.3c52.5-5.5,90.5-54.3,82.8-106.5c-7.7-52.3-56.5-87.8-108.7-79C89.7,87,55.2,158.3,87,213.9
				c4.8,8.4,5.9,15.1,1.9,23.6C86.4,242.9,85,248.9,82.8,255.3z"/>
			<path class="st0" d="M201.6,220.8c1.1-0.2,3.2-0.2,5.2-0.8c8.8-2.3,17-13.1,16.8-22.2c0-1.2-1.2-2.9-2.2-3.5
				c-5.6-2.9-11.3-5.9-17.2-8c-6.7-2.4-7.7-1.7-11.6,4.3c-5.9,9-10.4,10.2-19.6,4.7c-13.1-7.9-24-18.3-33.6-30.2
				c-3.3-4.1-3.2-7.3,0-11.5c1.8-2.4,3.9-4.5,6-6.7c1.9-2,2.9-4.2,1.5-6.7c-3.8-7-7.8-13.9-11.7-20.7c-1.4-2.4-3.5-2.7-6.2-1.9
				c-10.4,2.9-16.8,12.4-16,24.1c0.8,11.9,5.5,22.5,12,32.2c12.3,18.4,29.7,30.4,49.5,39.2C182.8,216.7,191.2,220.6,201.6,220.8z"/>
			<path d="M201.6,220.8c-10.4-0.2-18.8-4-27.1-7.7c-19.8-8.8-37.3-20.8-49.5-39.2c-6.5-9.8-11.2-20.3-12-32.2
				c-0.8-11.7,5.6-21.2,16-24.1c2.7-0.8,4.8-0.4,6.2,1.9c4,6.9,7.9,13.8,11.7,20.7c1.4,2.6,0.4,4.7-1.5,6.7c-2.1,2.2-4.2,4.3-6,6.7
				c-3.2,4.2-3.3,7.5,0,11.5c9.6,11.8,20.5,22.2,33.6,30.2c9.2,5.6,13.7,4.3,19.6-4.7c3.9-6,4.9-6.7,11.6-4.3c5.9,2.1,11.6,5.2,17.2,8
				c1.1,0.6,2.2,2.2,2.2,3.5c0.2,9.1-8,19.9-16.8,22.2C204.8,220.5,202.7,220.6,201.6,220.8z"/>
		</g>
	</symbol>

	<symbol id="icon--youtube" viewBox="0 0 335.9 338.6">
		<title>Youtube</title>
		<g>
			<path d="M167,338.6c-93.2-0.1-168.9-75.9-168.7-169C-1.5,76.2,74.3,0.7,167.4,1c93.2,0.3,168.5,75.8,168.5,168.8
				C335.9,263.1,260.1,338.7,167,338.6z M166.7,235.1c19.4,0,38.8,0,58.1,0c21.6,0,36-14.5,36-35.9c0-19.6,0-39.2,0-58.9
				c0-21.2-14.6-35.8-35.8-35.8c-38.6,0-77.2,0-115.9,0c-21.3,0-35.8,14.5-35.8,35.7c0,19.6,0,39.2,0,58.9c0,21.5,14.5,35.9,36,36
				C128.5,235.1,147.6,235.1,166.7,235.1z"/>
			<path class="st0" d="M143.4,206.2c19.6-12.1,38.6-23.9,58.1-35.9c-19.5-12.1-38.6-23.8-58.1-35.8
				C143.4,158.5,143.4,181.9,143.4,206.2z"/>
			<path d="M143.4,206.2c0-24.3,0-47.7,0-71.8c19.5,12,38.5,23.8,58.1,35.8C182,182.3,162.9,194.1,143.4,206.2z"/>
		</g>
	</symbol>

</svg>