<?xml version="1.0" encoding="utf-8"?>
<!-- Generator: Adobe Illustrator 27.2.0, SVG Export Plug-In . SVG Version: 6.00 Build 0)  -->
<svg version="1.1" id="Camada_1" xmlns="http://www.w3.org/2000/svg" xmlns:xlink="http://www.w3.org/1999/xlink" x="0px" y="0px"
	 viewBox="0 0 130.5 133.4" style="enable-background:new 0 0 130.5 133.4;" xml:space="preserve">
<g>
	<path d="M117.9,132.9c-3.1-0.4-5.8-2.7-8.1-4.9c-7.2-7.2-13.9-13.9-21-21c-2.7-2.7-4.5-4.9-4.9-8.9c-14.8,9.4-30.4,12.1-47,6.3
		c-13-4.5-22.8-12.5-30-24.6C-5.2,58.7-1.6,30,19.4,12.6c19.7-16.6,48.3-17,68.5,0c11.2,9.4,17.9,21,19.2,35.8
		c1.3,14.3-2.2,27.3-11.2,38.9c0.4,0,0.4,0,0.9,0.4c2.2,0.4,4.5,1.8,6.3,3.1c8.1,8.1,15.7,15.7,23.7,23.7c4.5,4.5,4.9,10.3,0.9,15.2
		c-1.8,1.8-4,2.7-6.3,3.6C119.6,132.9,118.7,132.9,117.9,132.9z M53.9,89.5c19.7,0,35.8-16.1,35.8-35.8C89.7,33.6,73.6,18,53.9,18
		S18.1,34.1,18.1,53.7S34.2,89.5,53.9,89.5z"/>
</g>
</svg>
