<?xml version="1.0" encoding="utf-8"?>
<!-- Generator: Adobe Illustrator 27.2.0, SVG Export Plug-In . SVG Version: 6.00 Build 0)  -->
<svg version="1.1" xmlns="http://www.w3.org/2000/svg" xmlns:xlink="http://www.w3.org/1999/xlink" x="0px" y="0px"
	 viewBox="0 0 1920 1080" style="enable-background:new 0 0 1920 1080;" xml:space="preserve">
    <symbol id="icon--arrow" viewBox="0 0 1920 1080">
        <title>Icon Arrow</title>
        <g>
            <path d="M930.9,507.1c33.4,0,66.5,0,99.9,0c-16.7,22-33.3,43.8-50,65.8C964.2,551,947.6,529.1,930.9,507.1z"/>
        </g>
    </symbol>

    <symbol id="icon--behance" viewBox="0 0 1920 1080">
        <title>Icon Behance</title>
        <g>
            <g>
                <path d="M778,722.3c0-121.4,0-242.9,0-364.3c121.4,0,242.9,0,364.3,0c0,121.4,0,242.7,0,364.3C1020.5,722.3,899.3,722.3,778,722.3
                    z M834.4,461.1c0,51.9,0,103.4,0,155.1c1.6,0,2.9,0,4.2,0c21.9,0,43.9,0.2,65.8-0.1c7.8-0.1,15.7-0.7,23.3-2.2
                    c20.9-4.4,36.2-18.9,36.2-41.9c0-13.3-3.5-25.2-14.7-33.4c-3.8-2.8-8.4-4.7-12.6-7c0.1-0.1,0.5-0.5,0.8-0.7
                    c14.8-7.5,20.5-19.9,19.2-36c-1.2-14.3-8-24.5-21.8-29.6c-9.4-3.5-19.2-4.1-29.1-4.2c-17.2,0-34.4,0-51.6,0
                    C847.7,461.1,841.1,461.1,834.4,461.1z M1086.7,567.5c-0.8-7.8-0.9-15.1-2.3-22.1c-5.3-26.4-24.7-44.3-51.9-44.6
                    c-24.3-0.3-45.3,12.8-54,35.4c-6.5,16.7-6.1,33.6,0.6,50.3c4.7,11.7,12.5,20.6,23.8,26.3c15.1,7.6,31,8.2,47.1,4
                    c18.1-4.8,28.7-17.3,33.9-35.2c-7.1,0-13.9,0.1-20.8-0.1c-3.7-0.1-6.8,0-8.4,4.2c-0.6,1.5-2.2,2.7-3.6,3.9
                    c-6.5,5.6-14.2,7-22.6,6.3c-15.5-1.2-23.6-12.7-23.1-28.3C1032.1,567.5,1058.9,567.5,1086.7,567.5z M1061.3,471.8
                    c-20.9,0-41.6,0-62.4,0c0,5.1,0,10,0,14.8c21,0,41.7,0,62.4,0C1061.3,481.5,1061.3,476.7,1061.3,471.8z"/>
                <path d="M868.4,589.9c0-14.4,0-28.3,0-42.3c0.7-0.1,1.3-0.4,2-0.4c12.5,0,25.1-0.1,37.6,0.1c6,0.1,11.9,1.6,16.2,6
                    c6.5,6.7,6.6,15,4.5,23.2c-2.1,8.1-8.7,11.6-16.4,12.5c-7,0.8-14.2,0.7-21.3,0.8C883.6,590,876.1,589.9,868.4,589.9z"/>
                <path d="M868.4,523.6c0-12.1,0-23.9,0-36.1c4.8,0,9.3-0.1,13.9,0c8.4,0.2,16.8-0.1,25.2,0.7c16,1.7,18.4,14.6,14.5,25.5
                    c-2.5,6.9-9,9.5-15.7,9.8C893.8,524,881.3,523.6,868.4,523.6z"/>
                <path d="M1005.3,547.8c0.6-14.3,11-23.9,25.6-23.7c14.3,0.2,23.5,9.1,23.9,23.7C1038.3,547.8,1021.8,547.8,1005.3,547.8z"/>
            </g>
        </g>
    </symbol>

    <symbol id="icon--github" viewBox="0 0 1920 1080">
        <title>Icon GitHub</title>
        <g>
            <path d="M1185.1,328.8V312h-9.3h-9H752h-2h-6.1h-9.3v21v2.1l0,0c0.1,138,0.1,276,0,414l0,0v18.1h9.3h4h142.6c0.2,0,0.3,0,0.5-0.1
                c6.8-2.1,9.3-6.8,9.1-13.9c-0.4-13.5-0.1-27-0.1-41.1c0-0.9-0.8-1.6-1.6-1.5c-6,0.4-11.9,0.7-17.7,1.1c-11.9,0.8-23.6-0.1-34.9-4.3
                c-12.3-4.6-21.3-13-27.4-24.6c-3.7-6.9-7-14-10.9-20.8c-4.2-7.3-10.4-12.8-17.3-17.5c-2.9-2-5.7-4.3-8.1-6.9c-3-3.3-2-6,2.4-6.9
                c10-2,19.3,0.2,27.3,6.1c5.3,3.9,10,8.8,14.1,13.9c6.5,7.9,11.8,16.6,20.4,22.6c13.5,9.3,27.9,10.3,43.1,5.9c1.7-0.5,3.3-1.3,5-1.7
                c4.3-1.1,6.7-3.7,7.6-8.1c1.9-9.1,5.9-17.1,12-24.5c0.7-0.9,0.3-2.3-0.9-2.5c-7.3-1.4-14.1-2.7-20.9-4.1
                c-16.3-3.4-31.8-8.9-45.6-18.5c-18.5-12.8-30.4-30.5-36.4-52c-5.7-20.4-7.9-41.2-4.7-62.4c2.4-16.1,8.4-30.8,18.7-43.5
                c3.6-4.4,4.5-8.5,3-14.2c-4.6-17.6-2.9-35,2.9-52.1c1.3-3.8,5.1-6.3,9.1-5.8c16.5,1.8,31.3,8.4,45.5,16.6
                c18.4,10.6,13.2,8.8,31.8,5.3c33-6.2,65.9-5.6,98.6,1.8c4.9,1.1,10,0.5,14.5-1.8c12.1-6.3,24.2-12.7,36.7-18.1
                c5.4-2.3,11.7-2.5,17.7-3.4c4.6-0.7,7.4,1.5,8.9,6c5.9,17.2,7.4,34.7,2.6,52.4c-1.2,4.4-0.2,8.1,2,11.8c4.4,7.5,9.5,14.7,13,22.6
                c8.5,19.3,10.4,39.6,7.6,60.4c-2.1,16.3-7.2,31.7-14.8,46.2c-10.2,19.6-26.2,32.9-46.5,40.2c-14.5,5.2-29.9,7.9-44.8,11.8
                c-0.5,0.1-1,0.3-1.5,0.4c-1,0.2-1.5,1.3-1,2.2c3.3,6.2,6.9,12.2,9.5,18.6c4.2,10.5,3.9,21.7,3.9,32.9c0,17.8-0.1,35.5-0.1,53.3
                c0,1.9,0.2,3.8,0.3,5.8c0.3,5.8,2.8,9.9,8.2,12.2c0.2,0.1,0.4,0.1,0.6,0.1h145h6.5h1.6V759h-0.1
                C1185,615.6,1185,472.2,1185.1,328.8L1185.1,328.8z"/>
        </g>
    </symbol>

    <symbol id="icon--linkedin" viewBox="0 0 1920 1080">
        <title>Icon Linkedin</title>
        <g>
            <g>
                <path d="M778,722.3c0-121.4,0-242.9,0-364.3c121.4,0,242.9,0,364.3,0c0,121.4,0,242.7,0,364.3C1020.5,722.3,899.3,722.3,778,722.3
                    z M1086.2,660.4c0-1.2,0-2,0-2.9c0-30,0.2-60-0.1-90c-0.1-7.9-0.8-15.9-2.3-23.6c-2.9-15.3-9.7-28.6-22.6-38.3
                    c-10.9-8.2-23.4-11.3-36.7-11.4c-18.4-0.2-33.8,6.3-45.2,21.1c-1.2,1.5-2.4,3-4.2,5.3c0-8.2,0-15.2,0-22.4c-18.1,0-35.9,0-53.8,0
                    c0,54.2,0,108,0,162c18,0,35.7,0,53.8,0c0-1.6,0-3,0-4.4c0-24.4,0-48.8,0-73.3c0-5.8,0-11.6,0.4-17.4c1-16.2,12.3-27.5,28.6-28.3
                    c10.1-0.5,18.3,3.2,23.1,12.7c3.2,6.2,4.6,12.7,4.7,19.5c0.2,28.9,0.1,57.8,0.2,86.8c0,1.4,0,2.8,0,4.3
                    C1050.3,660.4,1068,660.4,1086.2,660.4z M837.5,498.3c0,54.3,0,108.2,0,162.1c18,0,35.7,0,53.5,0c0-54.1,0-108,0-162.1
                    C873.1,498.3,855.4,498.3,837.5,498.3z M864.5,419.4c-3.7,0.7-7.5,1-11.1,2.1c-10.1,3.3-16.8,10.2-18.7,20.8
                    c-1.9,10.4,0.8,19.5,9.1,26.6c7.7,6.5,16.8,7.6,26.4,6.5c13.2-1.5,23.7-12.2,24.5-25.1C895.8,432.5,883.2,419.7,864.5,419.4z"/>
                <path class="st0" d="M778,722.3c121.3,0,242.5,0,364.3,0c0-121.6,0-242.9,0-364.3c0.2,0.9,0.7,1.9,0.7,2.8c0,14.1,0,28.2,0,42.3
                    c0,106.6,0,213.2,0,319.8c-120.6,0-241.2,0-361.8,0C780.1,723,779.1,722.5,778,722.3z"/>
            </g>
        </g>
    </symbol>

    <symbol id="icon--email" viewBox="0 0 1920 1080">
        <title>Icon Email</title>
        <g>
            <path d="M922,502c0,25.3,0,50.7,0,76c0.5,0,1,0,1.5,0c24.4,0,48.8,0,73.2,0c0.4,0,0.9,0,1.3,0c0-0.4,0-0.9,0-1.3
                c0-24.4,0-48.8,0-73.2c0-0.5,0-1,0-1.5C972.7,502,947.3,502,922,502z M985.7,554.8c0,1.4-0.3,1.7-1.7,1.7c-8,0-16,0-23.9,0
                c-8,0-16,0-23.9,0c-1.4,0-1.7-0.3-1.7-1.7c0-9.9,0-19.7,0-29.6c0-1.4,0.3-1.7,1.7-1.7c16,0,31.9,0,47.9,0c1.4,0,1.7,0.3,1.7,1.7
                C985.7,535.1,985.7,545,985.7,554.8z"/>
            <path d="M982.8,531c0-0.6,0-1.1,0-1.7c0-1-0.5-1.3-1.4-0.9c-0.1,0.1-0.2,0.1-0.3,0.2c-6.6,3.5-13.3,6.9-19.9,10.4
                c-0.8,0.4-1.4,0.4-2.1,0c-6.7-3.5-13.3-7-20-10.5c-1.3-0.7-1.7-0.4-1.7,1.1c0,0.9,0,1.8,0,2.7c-0.1,0.8,0.3,1.3,1,1.8
                c6.9,3.8,13.9,7.6,20.8,11.4c0.7,0.4,1.3,0.4,2,0c6.5-3.6,13.1-7.2,19.6-10.8C983.2,533.2,982.8,533.9,982.8,531z"/>
        </g>
    </symbol>

    <symbol id="icon--search" viewBox="0 0 1920 1080">
        <title>Icon Search</title>
        <g>
            <path d="M976.9,553.8c-0.7-0.1-1.3-0.6-1.8-1.1c-1.6-1.6-3.1-3.1-4.7-4.7c-0.6-0.6-1-1.1-1.1-2c-3.3,2.1-6.8,2.7-10.5,1.4
                c-2.9-1-5.1-2.8-6.7-5.5c-2.7-4.7-1.9-11.1,2.8-15c4.4-3.7,10.8-3.8,15.3,0c2.5,2.1,4,4.7,4.3,8c0.3,3.2-0.5,6.1-2.5,8.7
                c0.1,0,0.1,0,0.2,0.1c0.5,0.1,1,0.4,1.4,0.7c1.8,1.8,3.5,3.5,5.3,5.3c1,1,1.1,2.3,0.2,3.4c-0.4,0.4-0.9,0.6-1.4,0.8
                C977.3,553.8,977.1,553.8,976.9,553.8z M962.6,544.1c4.4,0,8-3.6,8-8c0-4.5-3.6-8-8-8c-4.4,0-8,3.6-8,8
                C954.6,540.5,958.2,544.1,962.6,544.1z"/>
        </g>
    </symbol>
</svg>
